<svg xmlns="http://www.w3.org/2000/svg" viewBox="0 0 64 64">
  <!-- Favicon OTR · logo oficial vectorizado (mismo path que app/lib/icons.ts).
       Escudo monocromo #171717 sobre tile blanco rx=12; los calados dejan ver el tile. -->
  <rect width="64" height="64" rx="12" fill="#FFFFFF"/>
  <g transform="translate(11.1 10.0) scale(0.1528)"><path fill-rule="evenodd" fill="#171717" d="M0 0L274 0L274 166L273 166L273 173L272 173L270 187L269 187L266 199L264 201L264 204L263 204L263 206L261 208L261 211L259 212L256 220L254 221L253 225L248 230L248 232L245 234L245 236L240 240L240 242L227 255L225 255L221 260L219 260L217 263L215 263L214 265L212 265L208 269L202 271L201 273L199 273L199 274L197 274L193 277L190 277L188 279L185 279L183 281L180 281L180 282L176 282L176 283L165 285L165 286L152 287L152 288L123 288L123 287L116 287L116 286L101 284L101 283L86 279L86 278L84 278L80 275L77 275L77 274L71 272L70 270L66 269L65 267L61 266L60 264L58 264L51 257L49 257L42 249L40 249L40 247L31 239L31 237L25 231L25 229L23 228L23 226L19 222L17 216L15 215L15 213L12 209L12 206L9 202L9 199L8 199L8 196L7 196L7 193L6 193L6 190L5 190L5 186L4 186L4 182L3 182L3 178L2 178L2 172L1 172L1 164L0 164ZM138 11L137 12L137 136L11 136L11 152L137 152L137 136L263 136L263 11ZM67 41L67 42L60 42L60 43L57 43L57 44L51 46L50 48L48 48L42 54L42 56L40 57L40 59L38 61L38 64L37 64L36 76L37 76L37 81L38 81L38 84L39 84L41 90L43 91L43 93L47 97L49 97L53 101L61 103L61 104L77 104L77 103L80 103L80 102L83 102L83 101L87 100L88 98L90 98L96 92L96 90L98 89L98 87L100 85L100 82L101 82L102 68L101 68L101 64L100 64L100 61L99 61L98 57L96 56L96 54L89 47L87 47L87 46L85 46L85 45L83 45L81 43L78 43L78 42L70 42L70 41ZM180 49L227 49L227 61L210 61L210 110L198 110L197 109L197 61L180 61ZM63 54L78 55L87 64L88 79L87 79L85 85L81 89L79 89L77 91L74 91L74 92L61 91L58 88L56 88L54 86L54 84L52 83L52 81L51 81L50 67L51 67L53 61L57 57L59 57L60 55L63 55ZM137 152L137 276L138 277L141 277L141 276L154 276L154 275L160 275L160 274L173 272L173 271L182 269L184 267L187 267L187 266L199 261L200 259L204 258L205 256L207 256L209 253L211 253L213 250L215 250L219 245L221 245L231 235L231 233L237 228L237 226L239 225L239 223L242 221L245 214L247 213L247 211L248 211L248 209L249 209L249 207L250 207L250 205L251 205L251 203L254 199L255 193L257 191L258 184L259 184L260 177L261 177L261 171L262 171L263 152L216 152L216 189L214 189L214 188L212 188L212 187L210 187L210 186L208 186L208 185L206 185L202 182L198 182L197 184L194 184L191 187L189 187L187 189L184 189L184 152ZM47 175L46 176L46 235L59 235L59 216L60 215L70 215L70 216L72 216L82 235L96 235L96 233L94 232L92 226L90 225L87 217L84 214L85 212L87 212L91 208L91 206L94 202L94 189L93 189L92 184L89 182L89 180L87 180L86 178L84 178L82 176L78 176L78 175ZM60 187L76 187L76 188L78 188L81 192L80 200L77 203L59 203L59 188L60 188Z"/></g>
</svg>
